PathFileType	4	(X/Y/Z)	/home/abdul/Desktop/myosuite/custom_workspace/IK/output/S4_12_1.trc
DataRate	CameraRate	NumFrames	NumMarkers	Units	OrigDataRate	OrigDataStartFrame	OrigNumFrames
200.0	200.0	27	3	mm	200.0	989	1130
Frame#	Time	V_Shoulder			V_Elbow			V_Wrist		
		X1	Y1	Z1	X2	Y2	Z2	X3	Y3	Z3

989	4.94	-101.532012505819	579.4887178755506	269.2675265112984	-206.52535904438423	434.3753798829772	28.33481972183423	-227.22287262011017	212.21331938262338	26.53849857865027
990	4.945	-101.6108192759848	579.5913953256703	269.24773105386384	-206.5162147693074	434.3980309478143	28.341454844383072	-227.20951167183281	212.24586334347248	26.58150059459481
991	4.95	-101.68677378549567	579.6966946568574	269.2284913987218	-206.50717946028232	434.4209581582769	28.3511064148938	-227.19941622342134	212.27734720794103	26.627090721406997
992	4.955	-101.75993372436078	579.8045242392546	269.2097781333373	-206.49811788695436	434.44404842976434	28.363645536326306	-227.19241124466538	212.3076934047607	26.674779013313447
993	4.96	-101.83035696157464	579.914791911573	269.1915653000347	-206.4888981904644	434.4671952639286	28.378945158543544	-227.18831729765435	212.33683455815662	26.72410037569059
994	4.965	-101.89810136567256	580.0274052068727	269.17383044579276	-206.4793923784444	434.49029877214895	28.39688057418022	-227.18695148983008	212.36471313545405	26.774614829115876
995	4.97	-101.96322463382803	580.1422715606351	269.1565546505135	-206.46947678492975	434.5132656777362	28.417329865904435	-227.18812839341996	212.3912810809457	26.82590767572394
996	4.975	-102.02578412993199	580.2592985008931	269.1397225339639	-206.45903249463973	434.5360092973781	28.440174304844337	-227.19166092955584	212.4164994376453	26.877589571081757
997	4.98	-102.08583673204237	580.3783938203163	269.12332224170535	-206.44794573123625	434.5584495023887	28.465298700261492	-227.1973612155702	212.44033795851809	26.929296505067136
998	4.985	-102.14343868954245	580.4994657302749	269.10734541044	-206.43610820932187	434.5805126603831	28.492591700848443	-227.2050413741476	212.4627747087457	26.980689695476165
999	4.99	-102.19864549029428	580.6224229970362	269.091787113311	-206.42341745008653	434.6021315580519	28.52194604830792	-227.21451430319067	212.48379566054803	27.03145539829802
1000	4.995	-102.25151173802233	580.747175060361	269.0766457857962	-206.4097770606544	434.6232453057655	28.553258784135583	-227.22559440543432	212.50339428204936	27.081304638780143
1001	5.0	-102.30209104011116	580.8736321348875	269.0619231329368	-206.39509697731978	434.6437992247853	28.586431410775486	-227.23809827701638	212.5215711216411	27.12997286756466
1002	5.005	-102.35043590594994	581.0017052947964	269.04762401873217	-206.37929367299148	434.663744717913	28.62137000854782	-227.25184535437847	212.5383333892563	27.177219546307988
1003	5.01	-102.39659765590608	581.1313065423486	269.0337563386196	-206.36229032929202	434.68303912445293	28.657985309961038	-227.26665851903542	212.55369453593346	27.222827667301473
1004	5.015	-102.44062634096137	581.2623488609944	269.02033087603934	-206.3440169738774	434.701645560404	28.696192733214804	-227.28236465990886	212.56767383300857	27.26660321169242
1005	5.02	-102.48257067299511	581.3947462538214	269.00736114415514	-206.32441058365805	434.7195327448404	28.735912376876474	-227.2987951930755	212.58029595223283	27.30837455096254
1006	5.025	-102.52247796565308	581.5284137682024	268.9948632138681	-206.303415154708	434.73667481347246	28.777068977871355	-227.31578653892956	212.591590548071	27.34799179635653
1007	5.03	-102.56039408569454	581.6632675075672	268.9828555293181	-206.28098173975332	434.7530511204121	28.819591835065673	-227.33318055690253	212.60159184339102	27.385326100967113
1008	5.035	-102.59636341466698	581.7992246312841	268.971358712117	-206.25706845422394	434.7686460291942	28.86341470084141	-227.35082493802457	212.61033821970918	27.42026891917658
1009	5.04	-102.63042882071647	581.9362033436896	268.9603953555991	-206.23164045194403	434.78344869412444	28.908475643163307	-227.36857355574492	212.6178718131057	27.452731228128677
1010	5.045	-102.66263164030208	582.0741228733474	268.9499898104081	-206.2046698716163	434.79745283304567	28.954716880720877	-227.38628677555886	212.62423811687665	27.482642715860482
1011	5.05	-102.69301166954544	582.2129034436512	268.94016796276463	-206.17613575533406	434.8106564926256	29.00208459379219	-227.40383172411288	212.62948559193518	27.50995094066181
1012	5.055	-102.72160716491231	582.3524662359108	268.93095700677395	-206.1460239404211	434.82306180727454	29.050528713521675	-227.42108251857724	212.63366528592024	27.53462046615163
1013	5.06	-102.74845485288999	582.4927333460752	268.92238521214375	-206.1143269259635	434.8346747528087	29.100002692331536	-227.43792045718837	212.63683046191673	27.55663197646726
1014	5.065	-102.7735899482953	582.6336277362508	268.9144816886807	-206.08104371545286	434.84550489596927	29.15046325819601	-227.45423417196895	212.63903623763167	27.575981375854052
1015	5.07	-102.79704618082046	582.7750731821752	268.90727614892893	-206.0461796370086	434.8555651409009	29.201870155499947	-227.46991974473377	212.6403392358141	27.59267887682217
